SplineFontDB: 3.2
FontName: Untitled1
FullName: Untitled1
FamilyName: Untitled1
Weight: Regular
Copyright: Copyright (c) 2020, Josef Gabrielsson
UComments: "2020-7-24: Created with FontForge (http://fontforge.org)"
Version: 001.000
ItalicAngle: 0
UnderlinePosition: -100
UnderlineWidth: 50
Ascent: 800
Descent: 200
InvalidEm: 0
LayerCount: 2
Layer: 0 0 "Back" 1
Layer: 1 0 "Fore" 0
XUID: [1021 598 188512296 14963136]
StyleMap: 0x0000
FSType: 0
OS2Version: 0
OS2_WeightWidthSlopeOnly: 0
OS2_UseTypoMetrics: 1
CreationTime: 1595553504
ModificationTime: 1610564503
OS2TypoAscent: 0
OS2TypoAOffset: 1
OS2TypoDescent: 0
OS2TypoDOffset: 1
OS2TypoLinegap: 90
OS2WinAscent: 0
OS2WinAOffset: 1
OS2WinDescent: 0
OS2WinDOffset: 1
HheadAscent: 0
HheadAOffset: 1
HheadDescent: 0
HheadDOffset: 1
MarkAttachClasses: 1
DEI: 91125
Encoding: UnicodeFull
UnicodeInterp: none
NameList: AGL For New Fonts
DisplaySize: -48
AntiAlias: 1
FitToEm: 1
WinInfo: 13209 17 6
BeginPrivate: 5
BlueValues 33 [-46 -12 430 439 662 675 682 685]
OtherBlues 11 [-260 -228]
BlueFuzz 1 1
BlueScale 8 0.029411
BlueShift 1 7
EndPrivate
BeginChars: 1114112 68

StartChar: Euro
Encoding: 8364 8364 0
Width: 1000
HStem: -75 104.167<520.616 730.248> 175 83.333<125 252.5 385 625> 341.667 83.333<125 252.5 385 625> 570.833 104.167<520.708 730.126>
VStem: 250 104.167<258.333 341.667>
LayerCount: 2
Fore
SplineSet
625 29.1669921875 m 0
 692.5 29.1669921875 753.75 53.75 800.833007812 94.5830078125 c 2
 875 20.8330078125 l 1
 808.75 -38.75 721.25 -75 625 -75 c 0
 461.666992188 -75 323.333007812 29.5830078125 271.666992188 175 c 2
 125 175 l 1
 125 258.333007812 l 1
 252.5 258.333007812 l 1
 250.833007812 272.083007812 250 285.833007812 250 300 c 0
 250 314.166992188 250.833007812 327.916992188 252.5 341.666992188 c 1
 125 341.666992188 l 1
 125 425 l 1
 271.666992188 425 l 2
 323.333007812 570.416992188 461.666992188 675 625 675 c 0
 720.833007812 675 808.75 638.75 875 579.166992188 c 1
 801.25 505.416992188 l 2
 753.75 546.25 692.083007812 570.833007812 625 570.833007812 c 0
 520.833007812 570.833007812 430 511.666992188 385 425 c 1
 625 425 l 1
 625 341.666992188 l 1
 357.5 341.666992188 l 2
 355.416992188 327.916992188 354.166992188 314.166992188 354.166992188 300 c 0
 354.166992188 285.833007812 355.416992188 272.083007812 357.5 258.333007812 c 2
 625 258.333007812 l 1
 625 175 l 1
 385 175 l 1
 430 88.3330078125 520.416992188 29.1669921875 625 29.1669921875 c 0
EndSplineSet
Validated: 1
EndChar

StartChar: uni29D7
Encoding: 10711 10711 1
Width: 1000
VStem: 250 500<-116.667 132.917 466.667 716.667>
LayerCount: 2
Fore
SplineSet
250 716.666992188 m 1
 750 716.666992188 l 1
 750 466.666992188 l 1
 749.583007812 466.666992188 l 1
 750 466.25 l 1
 583.333007812 300 l 1
 750 133.333007812 l 1
 749.583007812 132.916992188 l 1
 750 132.916992188 l 1
 750 -116.666992188 l 1
 250 -116.666992188 l 1
 250 132.916992188 l 1
 250.416992188 132.916992188 l 1
 250 133.333007812 l 1
 416.666992188 300 l 1
 250 466.25 l 1
 250.416992188 466.666992188 l 1
 250 466.666992188 l 1
 250 716.666992188 l 1
EndSplineSet
Validated: 1
EndChar

StartChar: uni29D6
Encoding: 10710 10710 2
Width: 1000
HStem: -116.667 83.334<333.333 666.667> 633.333 83.334<333.333 666.667>
VStem: 250 83.333<-33.333 112.5 487.5 633.333> 666.667 83.333<-33.333 112.5 487.5 633.333>
LayerCount: 2
Fore
SplineSet
250 716.666992188 m 1
 750 716.666992188 l 1
 750 466.666992188 l 1
 749.583007812 466.666992188 l 1
 750 466.25 l 1
 583.333007812 300 l 1
 750 133.333007812 l 1
 749.583007812 132.916992188 l 1
 750 132.916992188 l 1
 750 -116.666992188 l 1
 250 -116.666992188 l 1
 250 132.916992188 l 1
 250.416992188 132.916992188 l 1
 250 133.333007812 l 1
 416.666992188 300 l 1
 250 466.25 l 1
 250.416992188 466.666992188 l 1
 250 466.666992188 l 1
 250 716.666992188 l 1
666.666992188 112.5 m 1
 500 279.166992188 l 1
 333.333007812 112.5 l 1
 333.333007812 -33.3330078125 l 1
 666.666992188 -33.3330078125 l 1
 666.666992188 112.5 l 1
500 320.833007812 m 1
 666.666992188 487.5 l 1
 666.666992188 633.333007812 l 1
 333.333007812 633.333007812 l 1
 333.333007812 487.5 l 1
 500 320.833007812 l 1
EndSplineSet
Validated: 1
EndChar

StartChar: uni2605
Encoding: 9733 9733 3
Width: 1000
LayerCount: 2
Fore
SplineSet
601.25 383.333007812 m 1
 916.666992188 383.333007812 l 1
 659.583007812 199.583007812 l 1
 757.5 -116.666992188 l 1
 500 78.75 l 1
 242.916992188 -116.666992188 l 1
 340.833007812 199.583007812 l 1
 83.3330078125 383.333007812 l 1
 398.75 383.333007812 l 1
 500 716.666992188 l 1
 601.25 383.333007812 l 1
EndSplineSet
Validated: 1
EndChar

StartChar: uni26A0
Encoding: 9888 9888 4
Width: 1000
Flags: W
HStem: -75 125<458.333 541.667> 133.333 83.334<458.333 541.667>
LayerCount: 2
Fore
SplineSet
41.6669921875 -75 m 1
 500 716.666992188 l 1
 958.333007812 -75 l 1
 41.6669921875 -75 l 1
541.666992188 50 m 1
 541.666992188 133.333007812 l 1
 458.333007812 133.333007812 l 1
 458.333007812 50 l 1
 541.666992188 50 l 1
541.666992188 216.666992188 m 1
 541.666992188 383.333007812 l 1
 458.333007812 383.333007812 l 1
 458.333007812 216.666992188 l 1
 541.666992188 216.666992188 l 1
EndSplineSet
Validated: 1
EndChar

StartChar: u1F5A8
Encoding: 128424 128424 5
Width: 1000
HStem: -75 83.333<333.333 666.667> 91.667 208.333<755.048 828.285> 216.667 250<333.333 666.667> 383.333 83.334<755.048 825.933> 508.333 166.667<250 750>
VStem: 250 83.333<8.33301 91.667> 666.667 83.333<8.33301 91.667> 833.333 83.334<305.048 375.933>
LayerCount: 2
Fore
SplineSet
791.666992188 466.666992188 m 2xdf
 860.833007812 466.666992188 916.666992188 410.833007812 916.666992188 341.666992188 c 2
 916.666992188 91.6669921875 l 1
 750 91.6669921875 l 1
 750 -75 l 1
 250 -75 l 1
 250 91.6669921875 l 1
 83.3330078125 91.6669921875 l 1
 83.3330078125 341.666992188 l 2
 83.3330078125 410.833007812 139.166992188 466.666992188 208.333007812 466.666992188 c 2
 791.666992188 466.666992188 l 2xdf
666.666992188 8.3330078125 m 1
 666.666992188 216.666992188 l 1
 333.333007812 216.666992188 l 1xaf
 333.333007812 8.3330078125 l 1
 666.666992188 8.3330078125 l 1
791.666992188 300 m 0xdf
 814.583007812 300 833.333007812 318.75 833.333007812 341.666992188 c 0
 833.333007812 364.583007812 814.583007812 383.333007812 791.666992188 383.333007812 c 0
 768.75 383.333007812 750 364.583007812 750 341.666992188 c 0
 750 318.75 768.75 300 791.666992188 300 c 0xdf
750 675 m 1
 750 508.333007812 l 1
 250 508.333007812 l 1
 250 675 l 1
 750 675 l 1
EndSplineSet
Validated: 1
EndChar

StartChar: triagup
Encoding: 9650 9650 6
Width: 1000
LayerCount: 2
Fore
SplineSet
41.6669921875 -75 m 1
 500 716.666992188 l 1
 958.333007812 -75 l 1
 41.6669921875 -75 l 1
EndSplineSet
Validated: 1
EndChar

StartChar: uni25B5
Encoding: 9653 9653 7
Width: 1000
Flags: W
HStem: -33.333 83.333<233.75 766.25>
LayerCount: 2
Fore
SplineSet
500 476.25 m 1
 233.75 50 l 1
 766.25 50 l 1
 500 476.25 l 1
500 633.333007812 m 1
 916.666992188 -33.3330078125 l 1
 83.3330078125 -33.3330078125 l 1
 500 633.333007812 l 1
EndSplineSet
Validated: 1
EndChar

StartChar: H18533
Encoding: 9679 9679 8
Width: 1000
HStem: -116.667 833.334<366.409 633.591>
VStem: 83.333 833.334<166.409 433.591>
LayerCount: 2
Fore
SplineSet
500 716.666992188 m 0
 730 716.666992188 916.666992188 530 916.666992188 300 c 0
 916.666992188 70 730 -116.666992188 500 -116.666992188 c 0
 270 -116.666992188 83.3330078125 70 83.3330078125 300 c 0
 83.3330078125 530 270 716.666992188 500 716.666992188 c 0
EndSplineSet
Validated: 1
EndChar

StartChar: filledbox
Encoding: 9632 9632 9
Width: 1000
HStem: -75 791.667<41.667 958.333>
VStem: 41.667 916.666<-75 716.667>
LayerCount: 2
Fore
SplineSet
41.6669921875 -75 m 1
 41.6669921875 716.666992188 l 1
 958.333007812 716.666992188 l 1
 958.333007812 -75 l 1
 41.6669921875 -75 l 1
EndSplineSet
Validated: 1
EndChar

StartChar: u1F4F9
Encoding: 128249 128249 10
Width: 1000
HStem: 50 500<130.048 703.285>
LayerCount: 2
Fore
SplineSet
708.333007812 362.5 m 1
 875 529.166992188 l 1
 875 70.8330078125 l 1
 708.333007812 237.5 l 1
 708.333007812 91.6669921875 l 2
 708.333007812 68.75 689.583007812 50 666.666992188 50 c 2
 166.666992188 50 l 2
 143.75 50 125 68.75 125 91.6669921875 c 2
 125 508.333007812 l 2
 125 531.25 143.75 550 166.666992188 550 c 2
 666.666992188 550 l 2
 689.583007812 550 708.333007812 531.25 708.333007812 508.333007812 c 2
 708.333007812 362.5 l 1
EndSplineSet
Validated: 1
EndChar

StartChar: u1F39E
Encoding: 127902 127902 11
Width: 1000
HStem: 8.33301 83.334<250 333.333 666.667 750> 175 83.333<250 333.333 666.667 750> 341.667 83.333<250 333.333 666.667 750> 508.333 83.334<250 333.333 666.667 750>
VStem: 166.667 83.333<-75 8.33301 91.667 175 258.333 341.667 425 508.333 591.667 675> 333.333 333.334<-75 8.33301 91.667 175 258.333 341.667 425 508.333 591.667 675> 750 83.333<-75 8.33301 91.667 175 258.333 341.667 425 508.333 591.667 675>
CounterMasks: 1 0e
LayerCount: 2
Fore
SplineSet
750 675 m 1
 833.333007812 675 l 1
 833.333007812 -75 l 1
 750 -75 l 1
 750 8.3330078125 l 1
 666.666992188 8.3330078125 l 1
 666.666992188 -75 l 1
 333.333007812 -75 l 1
 333.333007812 8.3330078125 l 1
 250 8.3330078125 l 1
 250 -75 l 1
 166.666992188 -75 l 1
 166.666992188 675 l 1
 250 675 l 1
 250 591.666992188 l 1
 333.333007812 591.666992188 l 1
 333.333007812 675 l 1
 666.666992188 675 l 1
 666.666992188 591.666992188 l 1
 750 591.666992188 l 1
 750 675 l 1
333.333007812 91.6669921875 m 1
 333.333007812 175 l 1
 250 175 l 1
 250 91.6669921875 l 1
 333.333007812 91.6669921875 l 1
333.333007812 258.333007812 m 1
 333.333007812 341.666992188 l 1
 250 341.666992188 l 1
 250 258.333007812 l 1
 333.333007812 258.333007812 l 1
333.333007812 425 m 1
 333.333007812 508.333007812 l 1
 250 508.333007812 l 1
 250 425 l 1
 333.333007812 425 l 1
750 91.6669921875 m 1
 750 175 l 1
 666.666992188 175 l 1
 666.666992188 91.6669921875 l 1
 750 91.6669921875 l 1
750 258.333007812 m 1
 750 341.666992188 l 1
 666.666992188 341.666992188 l 1
 666.666992188 258.333007812 l 1
 750 258.333007812 l 1
750 425 m 1
 750 508.333007812 l 1
 666.666992188 508.333007812 l 1
 666.666992188 425 l 1
 750 425 l 1
EndSplineSet
Validated: 1
EndChar

StartChar: musicalnote
Encoding: 9834 9834 12
Width: 1000
HStem: -75 375<352.054 497.62> 550 125<625 791.667>
VStem: 250 375<91.667 197.946> 500 125<288.333 550>
LayerCount: 2
Fore
SplineSet
500 675 m 1xd0
 791.666992188 675 l 1
 791.666992188 550 l 1
 625 550 l 1xd0
 625 91.6669921875 l 1
 622.916992188 91.6669921875 l 2
 612.5 -2.0830078125 533.75 -75 437.5 -75 c 0
 333.75 -75 250 8.75 250 112.5 c 0xe0
 250 216.25 333.75 300 437.5 300 c 0
 459.583007812 300 480.416992188 295.416992188 500 288.333007812 c 1
 500 675 l 1xd0
EndSplineSet
Validated: 1
EndChar

StartChar: u1F4FA
Encoding: 128250 128250 13
Width: 1000
HStem: -75 166.667<333.333 666.667> 8.33301 83.334<125 333.333 666.667 875> 591.667 83.333<125 875>
VStem: 41.667 83.333<91.667 591.667> 875 82.917<91.667 591.667>
LayerCount: 2
Fore
SplineSet
875 675 m 2x78
 920.833007812 675 958.333007812 637.5 958.333007812 591.666992188 c 2
 957.916992188 91.6669921875 l 2
 957.916992188 45.8330078125 920.833007812 8.3330078125 875 8.3330078125 c 2
 666.666992188 8.3330078125 l 1x78
 666.666992188 -75 l 1
 333.333007812 -75 l 1xb8
 333.333007812 8.3330078125 l 1
 125 8.3330078125 l 2
 79.1669921875 8.3330078125 41.6669921875 45.8330078125 41.6669921875 91.6669921875 c 2
 41.6669921875 591.666992188 l 2
 41.6669921875 637.5 79.1669921875 675 125 675 c 2
 875 675 l 2x78
875 91.6669921875 m 1
 875 591.666992188 l 1
 125 591.666992188 l 1
 125 91.6669921875 l 1
 875 91.6669921875 l 1
EndSplineSet
Validated: 1
EndChar

StartChar: uni231B
Encoding: 8987 8987 14
Width: 1000
HStem: 633.333 83.334<333.333 666.667>
VStem: 250 83.333<487.5 633.333> 666.667 82.916<487.5 633.333>
LayerCount: 2
Fore
SplineSet
750 -116.666992188 m 1
 250 -116.666992188 l 1
 250 133.75 l 1
 416.666992188 300 l 1
 250 466.666992188 l 1
 250 716.666992188 l 1
 750 716.666992188 l 1
 749.583007812 467.083007812 l 1
 583.333007812 300 l 1
 749.583007812 133.333007812 l 1
 750 -116.666992188 l 1
333.333007812 487.5 m 1
 500 320.833007812 l 1
 666.666992188 487.5 l 1
 666.666992188 633.333007812 l 1
 333.333007812 633.333007812 l 1
 333.333007812 487.5 l 1
EndSplineSet
Validated: 1
EndChar

StartChar: uni23F3
Encoding: 9203 9203 15
Width: 1000
HStem: -116.667 83.334<333.333 666.667>
VStem: 250 83.333<-33.333 112.5> 666.667 83.333<-33.333 112.5>
LayerCount: 2
Fore
SplineSet
250 716.666992188 m 1
 750 716.666992188 l 1
 750 466.25 l 1
 583.333007812 300 l 1
 750 133.333007812 l 1
 750 -116.666992188 l 1
 250 -116.666992188 l 1
 250.416992188 132.916992188 l 1
 416.666992188 300 l 1
 250.416992188 466.666992188 l 1
 250 716.666992188 l 1
666.666992188 112.5 m 1
 500 279.166992188 l 1
 333.333007812 112.5 l 1
 333.333007812 -33.3330078125 l 1
 666.666992188 -33.3330078125 l 1
 666.666992188 112.5 l 1
EndSplineSet
Validated: 1
EndChar

StartChar: u1F516
Encoding: 128278 128278 16
Width: 1000
VStem: 208.75 582.917<50 647.623>
LayerCount: 2
Fore
SplineSet
708.333007812 675 m 2
 754.166992188 675 791.666992188 637.5 791.666992188 591.666992188 c 2
 791.666992188 -75 l 1
 500 50 l 1
 208.333007812 -75 l 1
 208.75 591.666992188 l 2
 208.75 637.5 245.833007812 675 291.666992188 675 c 2
 708.333007812 675 l 2
EndSplineSet
Validated: 1
EndChar

StartChar: u1F56E
Encoding: 128366 128366 17
Width: 1000
HStem: 633.333 83.334<250 458.333>
VStem: 166.667 83.333<300 633.333> 458.333 375<300 633.333>
LayerCount: 2
Fore
SplineSet
750 716.666992188 m 2
 795.833007812 716.666992188 833.333007812 679.166992188 833.333007812 633.333007812 c 2
 833.333007812 -33.3330078125 l 2
 833.333007812 -79.1669921875 795.833007812 -116.666992188 750 -116.666992188 c 2
 250 -116.666992188 l 2
 204.166992188 -116.666992188 166.666992188 -79.1669921875 166.666992188 -33.3330078125 c 2
 166.666992188 633.333007812 l 2
 166.666992188 679.166992188 204.166992188 716.666992188 250 716.666992188 c 2
 750 716.666992188 l 2
250 633.333007812 m 1
 250 300 l 1
 354.166992188 362.5 l 1
 458.333007812 300 l 1
 458.333007812 633.333007812 l 1
 250 633.333007812 l 1
EndSplineSet
Validated: 1
EndChar

StartChar: u1F4A1
Encoding: 128161 128161 18
Width: 1000
HStem: -117 125<445.102 555.341> -75 83<417 446.107 554.338 583> 50 42<417 583> 133 84<479 521>
VStem: 333 84<8 50 92 132.201> 583 84<8 50 92 132.134>
LayerCount: 2
Fore
SplineSet
500 675 m 0x7c
 661 675 792 545 792 383 c 0
 792 297 754 219 693 165 c 0
 676 150 667 128 667 105 c 2
 667 8 l 2
 667 -38 629 -75 583 -75 c 2
 572 -75 l 2x7c
 558 -100 531 -117 500 -117 c 0xbc
 469 -117 443 -100 428 -75 c 2
 417 -75 l 2
 371 -75 333 -38 333 8 c 2
 333 105 l 2
 333 128 324 150 306 166 c 0
 245.660723248 218.900187837 207.867390299 296.395950731 207.867390299 383.239899537 c 0
 207.867390299 401.461980755 209.531308699 420.09563241 213 439 c 0
 235 554 327 647 442 669 c 0
 461 673 481 675 500 675 c 0x7c
583 8 m 1
 583 50 l 1
 417 50 l 1
 417 8 l 1
 583 8 l 1
583 92 m 1
 583 133 l 1
 417 133 l 1
 417 92 l 1
 583 92 l 1
521 325 m 1
 597 400 l 1
 568 430 l 1
 500 362 l 1
 432 430 l 1
 403 400 l 1
 479 325 l 1
 479 217 l 1
 521 217 l 1
 521 325 l 1
EndSplineSet
Validated: 1
EndChar

StartChar: u1F4CB
Encoding: 128203 128203 19
Width: 1000
HStem: -116.667 83.334<208.333 791.667> 508.333 125<463.381 536.619> 633.333 83.334<208.333 291.667 708.333 791.667> 716.667 83.333<463.463 536.537>
VStem: 125 83.333<-33.333 633.333> 791.667 83.333<-33.333 633.333>
LayerCount: 2
Fore
SplineSet
791.666992188 716.666992188 m 2xac
 837.5 716.666992188 875 679.166992188 875 633.333007812 c 2
 875 -33.3330078125 l 2
 875 -79.1669921875 837.5 -116.666992188 791.666992188 -116.666992188 c 2
 208.333007812 -116.666992188 l 2
 162.5 -116.666992188 125 -79.1669921875 125 -33.3330078125 c 2
 125 633.333007812 l 2
 125 679.166992188 162.5 716.666992188 208.333007812 716.666992188 c 2xac
 382.5 716.666992188 l 2
 400 765 445.833007812 800 500 800 c 0
 554.166992188 800 600 765 617.5 716.666992188 c 2x9c
 791.666992188 716.666992188 l 2xac
500 716.666992188 m 0xdc
 477.083007812 716.666992188 458.333007812 697.916992188 458.333007812 675 c 0
 458.333007812 652.083007812 477.083007812 633.333007812 500 633.333007812 c 0
 522.916992188 633.333007812 541.666992188 652.083007812 541.666992188 675 c 0
 541.666992188 697.916992188 522.916992188 716.666992188 500 716.666992188 c 0xdc
791.666992188 -33.3330078125 m 1
 791.666992188 633.333007812 l 1
 708.333007812 633.333007812 l 1xac
 708.333007812 508.333007812 l 1
 291.666992188 508.333007812 l 1xcc
 291.666992188 633.333007812 l 1
 208.333007812 633.333007812 l 1xac
 208.333007812 -33.3330078125 l 1
 791.666992188 -33.3330078125 l 1
EndSplineSet
Validated: 1
EndChar

StartChar: heart
Encoding: 9829 9829 20
Width: 1000
VStem: 83.333 833.334<345.662 540.904>
LayerCount: 2
Fore
SplineSet
500 -89.5830078125 m 1
 439.583007812 -34.5830078125 l 2
 225 160 83.3330078125 288.333007812 83.3330078125 445.833007812 c 0
 83.3330078125 574.166992188 184.166992188 675 312.5 675 c 0
 385 675 454.583007812 641.25 500 587.916992188 c 1
 545.416992188 641.25 615 675 687.5 675 c 0
 815.833007812 675 916.666992188 574.166992188 916.666992188 445.833007812 c 0
 916.666992188 288.333007812 775 160 560.416992188 -35 c 2
 500 -89.5830078125 l 1
EndSplineSet
Validated: 1
EndChar

StartChar: uni2661
Encoding: 9825 9825 21
Width: 1000
HStem: 591.667 83.333<236.978 392.114 607.903 763.022>
VStem: 83.333 83.334<360.16 521.356> 833.333 83.334<360.161 521.356>
LayerCount: 2
Fore
SplineSet
687.5 675 m 0
 815.833007812 675 916.666992188 574.166992188 916.666992188 445.833007812 c 0
 916.666992188 288.333007812 775 160 560.416992188 -34.5830078125 c 2
 500 -89.5830078125 l 1
 439.583007812 -35 l 2
 225 160 83.3330078125 288.333007812 83.3330078125 445.833007812 c 0
 83.3330078125 574.166992188 184.166992188 675 312.5 675 c 0
 385 675 454.583007812 641.25 500 587.916992188 c 1
 545.416992188 641.25 615 675 687.5 675 c 0
504.166992188 27.0830078125 m 2
 702.5 206.666992188 833.333007812 325.416992188 833.333007812 445.833007812 c 0
 833.333007812 529.166992188 770.833007812 591.666992188 687.5 591.666992188 c 0
 623.333007812 591.666992188 560.833007812 550.416992188 539.166992188 493.333007812 c 2
 461.25 493.333007812 l 2
 439.166992188 550.416992188 376.666992188 591.666992188 312.5 591.666992188 c 0
 229.166992188 591.666992188 166.666992188 529.166992188 166.666992188 445.833007812 c 0
 166.666992188 325.416992188 297.5 206.666992188 495.833007812 27.0830078125 c 2
 500 22.9169921875 l 1
 504.166992188 27.0830078125 l 2
EndSplineSet
Validated: 1
EndChar

StartChar: uni2693
Encoding: 9875 9875 22
Width: 1000
HStem: -116.667 86.667<385.925 458.333 541.667 614.075> 341.667 83.333<333.333 458.333 541.667 666.667> 633.333 83.334<464.631 535.369>
VStem: 375 83.333<555.13 627.036> 458.333 83.334<-30 341.667 425 484.369> 541.667 83.333<555.13 627.036>
LayerCount: 2
Fore
SplineSet
708.333007812 175 m 1xe8
 875 300 l 1
 875 175 l 2
 875 13.3330078125 670 -116.666992188 500 -116.666992188 c 0
 330 -116.666992188 125 13.3330078125 125 175 c 2
 125 300 l 1
 291.666992188 175 l 1
 227.083007812 110.416992188 l 2
 267.083007812 40 365.833007812 -16.25 458.333007812 -30 c 1
 458.333007812 341.666992188 l 1
 333.333007812 341.666992188 l 1
 333.333007812 425 l 1
 458.333007812 425 l 1
 458.333007812 474.166992188 l 2xe8
 410 491.666992188 375 537.5 375 591.666992188 c 0
 375 660.416992188 431.25 716.666992188 500 716.666992188 c 0
 568.75 716.666992188 625 660.416992188 625 591.666992188 c 0xf4
 625 537.5 590 491.666992188 541.666992188 474.166992188 c 2
 541.666992188 425 l 1
 666.666992188 425 l 1
 666.666992188 341.666992188 l 1
 541.666992188 341.666992188 l 1
 541.666992188 -30 l 1
 634.166992188 -16.25 732.916992188 40 772.916992188 110.416992188 c 2
 708.333007812 175 l 1xe8
500 633.333007812 m 0
 477.083007812 633.333007812 458.333007812 614.583007812 458.333007812 591.666992188 c 0
 458.333007812 568.75 477.083007812 550 500 550 c 0
 522.916992188 550 541.666992188 568.75 541.666992188 591.666992188 c 0xf4
 541.666992188 614.583007812 522.916992188 633.333007812 500 633.333007812 c 0
EndSplineSet
Validated: 1
EndChar

StartChar: u1F4D1
Encoding: 128209 128209 23
Width: 1000
HStem: 675 83.333<342.292 764.289>
VStem: 125 583.333<-33.333 564.289> 791.667 83.333<50 647.623>
LayerCount: 2
Fore
SplineSet
791.666992188 50 m 1
 791.666992188 591.666992188 l 2
 791.666992188 637.5 754.166992188 675 708.333007812 675 c 2
 291.666992188 675 l 1
 291.666992188 720.833007812 328.75 758.333007812 374.583007812 758.333007812 c 2
 791.666992188 758.333007812 l 2
 837.5 758.333007812 875 720.833007812 875 675 c 2
 875 8.3330078125 l 1
 791.666992188 50 l 1
625 591.666992188 m 2
 670.833007812 591.666992188 708.333007812 554.166992188 708.333007812 508.333007812 c 2
 708.333007812 -158.333007812 l 1
 416.666992188 -33.3330078125 l 1
 125 -158.333007812 l 1
 125 508.333007812 l 2
 125 554.166992188 162.5 591.666992188 208.333007812 591.666992188 c 2
 625 591.666992188 l 2
EndSplineSet
Validated: 1
EndChar

StartChar: uni2699
Encoding: 9881 9881 24
Width: 1000
HStem: -100 250<422.372 577.628> 450 250<422.372 577.628>
VStem: 200 150<251.589 348.411> 400 199.583<-100 -36.4699 635.142 700> 650 150<251.589 348.411>
LayerCount: 2
Fore
SplineSet
797.5 260.833007812 m 2
 881.25 195 l 2
 889.166992188 189.166992188 891.25 178.75 886.25 169.583007812 c 2
 806.25 31.25 l 2
 801.25 22.0830078125 790.833007812 18.75 781.666992188 22.0830078125 c 2
 682.083007812 62.0830078125 l 2
 661.666992188 46.25 639.166992188 32.9169921875 614.583007812 22.9169921875 c 2
 599.583007812 -82.9169921875 l 2
 598.333007812 -92.9169921875 590 -100 580 -100 c 2
 420 -100 l 2
 410 -100 402.083007812 -92.9169921875 400 -82.9169921875 c 2
 385 22.9169921875 l 2
 360.416992188 32.9169921875 338.333007812 46.25 317.5 62.0830078125 c 2
 217.916992188 22.0830078125 l 2
 208.75 19.1669921875 198.333007812 22.0830078125 193.333007812 31.25 c 2
 113.333007812 169.583007812 l 2
 108.75 177.916992188 110.833007812 189.166992188 118.333007812 195 c 2
 202.916992188 260.833007812 l 2
 200.833007812 273.333007812 200 287.083007812 200 300 c 0
 200 312.916992188 201.666992188 326.666992188 203.75 339.166992188 c 2
 119.166992188 405 l 2
 110.833007812 410.833007812 109.166992188 421.666992188 114.166992188 430.416992188 c 2
 193.75 568.75 l 2
 198.75 577.916992188 209.166992188 581.25 218.333007812 577.916992188 c 2
 317.916992188 537.916992188 l 2
 338.333007812 553.333007812 360.833007812 567.083007812 385.416992188 577.083007812 c 2
 400.416992188 682.916992188 l 2
 402.083007812 692.916992188 410 700 420 700 c 2
 580 700 l 2
 590 700 598.333007812 692.916992188 600 682.916992188 c 2
 615 577.083007812 l 2
 639.583007812 567.083007812 661.666992188 553.75 682.5 537.916992188 c 2
 782.083007812 577.916992188 l 2
 791.25 580.833007812 801.666992188 577.916992188 806.666992188 568.75 c 2
 886.666992188 430.416992188 l 2
 891.25 422.083007812 889.166992188 410.833007812 881.666992188 405 c 2
 797.083007812 339.166992188 l 2
 799.166992188 326.666992188 800 313.333007812 800 300 c 0
 800 286.25 799.166992188 273.333007812 797.5 260.833007812 c 2
500 150 m 0
 582.5 150 650 217.5 650 300 c 0
 650 382.5 582.5 450 500 450 c 0
 417.5 450 350 382.5 350 300 c 0
 350 217.5 417.5 150 500 150 c 0
EndSplineSet
Validated: 1
EndChar

StartChar: house
Encoding: 8962 8962 25
Width: 1000
HStem: 216.667 166.666<416.667 583.333>
VStem: 208.333 208.334<-33.333 216.667> 583.333 208.334<-33.333 216.667 412.5 439.289> 666.667 125<525 633.333>
LayerCount: 2
Fore
SplineSet
791.666992188 412.5 m 1xe0
 916.666992188 300 l 1
 791.666992188 300 l 1xd0
 791.666992188 -33.3330078125 l 1
 583.333007812 -33.3330078125 l 1
 583.333007812 216.666992188 l 1xe0
 416.666992188 216.666992188 l 1
 416.666992188 -33.3330078125 l 1
 208.333007812 -33.3330078125 l 1
 208.333007812 300 l 1
 83.3330078125 300 l 1
 500 675 l 1
 666.666992188 525 l 1
 666.666992188 633.333007812 l 1
 791.666992188 633.333007812 l 1xd0
 791.666992188 412.5 l 1xe0
416.666992188 383.333007812 m 1
 583.333007812 383.333007812 l 1xe0
 583.333007812 429.166992188 545.833007812 466.666992188 500 466.666992188 c 0
 454.166992188 466.666992188 416.666992188 429.166992188 416.666992188 383.333007812 c 1
EndSplineSet
Validated: 1
EndChar

StartChar: u1F517
Encoding: 128279 128279 26
Width: 1000
HStem: 91.667 79.166<222.086 458.333 541.667 777.914> 258.333 83.334<333.333 666.667> 429.167 79.166<222.086 458.333 541.667 777.914>
VStem: 83.333 79.167<229.405 370.595> 837.5 79.167<229.405 370.595>
CounterMasks: 1 e0
LayerCount: 2
Fore
SplineSet
162.5 300 m 0
 162.5 228.75 220.416992188 170.833007812 291.666992188 170.833007812 c 2
 458.333007812 170.833007812 l 1
 458.333007812 91.6669921875 l 1
 291.666992188 91.6669921875 l 2
 176.666992188 91.6669921875 83.3330078125 185 83.3330078125 300 c 0
 83.3330078125 415 176.666992188 508.333007812 291.666992188 508.333007812 c 2
 458.333007812 508.333007812 l 1
 458.333007812 429.166992188 l 1
 291.666992188 429.166992188 l 2
 220.416992188 429.166992188 162.5 371.25 162.5 300 c 0
333.333007812 258.333007812 m 1
 333.333007812 341.666992188 l 1
 666.666992188 341.666992188 l 1
 666.666992188 258.333007812 l 1
 333.333007812 258.333007812 l 1
708.333007812 508.333007812 m 2
 823.333007812 508.333007812 916.666992188 415 916.666992188 300 c 0
 916.666992188 185 823.333007812 91.6669921875 708.333007812 91.6669921875 c 2
 541.666992188 91.6669921875 l 1
 541.666992188 170.833007812 l 1
 708.333007812 170.833007812 l 2
 779.583007812 170.833007812 837.5 228.75 837.5 300 c 0
 837.5 371.25 779.583007812 429.166992188 708.333007812 429.166992188 c 2
 541.666992188 429.166992188 l 1
 541.666992188 508.333007812 l 1
 708.333007812 508.333007812 l 2
EndSplineSet
Validated: 1
EndChar

StartChar: equivalence
Encoding: 8801 8801 27
Width: 1000
HStem: 50 83.333<125 875> 258.333 83.334<125 875> 466.667 83.333<125 875>
CounterMasks: 1 e0
LayerCount: 2
Fore
SplineSet
125 50 m 1
 125 133.333007812 l 1
 875 133.333007812 l 1
 875 50 l 1
 125 50 l 1
125 258.333007812 m 1
 125 341.666992188 l 1
 875 341.666992188 l 1
 875 258.333007812 l 1
 125 258.333007812 l 1
125 550 m 1
 875 550 l 1
 875 466.666992188 l 1
 125 466.666992188 l 1
 125 550 l 1
EndSplineSet
Validated: 1
EndChar

StartChar: u1F527
Encoding: 128295 128295 28
Width: 1000
LayerCount: 2
Fore
SplineSet
945.833007812 8.3330078125 m 2
 953.702167102 2.43125361396 957.855978881 -7.18563040279 957.855978881 -17.4480860079 c 0
 957.855978881 -28.9216584969 952.663896694 -41.2021671021 941.666992188 -50 c 2
 845.833007812 -145.833007812 l 2
 837.5 -154.166503906 827.083496094 -158.333251953 816.666870118 -158.333251953 c 0
 806.250244141 -158.333251953 795.833496094 -154.166503906 787.5 -145.833007812 c 2
 408.333007812 233.333007812 l 2
 377.529719049 221.279506049 345.004477783 215.252787597 312.417696187 215.252787597 c 0
 243.622793533 215.252787597 174.553613869 242.113064425 120.833007812 295.833007812 c 0
 67.5491426602 349.117497387 39.8180097085 419.436875588 39.8180097085 489.36342582 c 0
 39.8180097085 528.798119187 48.6374361633 568.10788014 66.6669921875 604.166992188 c 1
 250 425 l 1
 375 550 l 1
 195.833007812 729.166992188 l 1
 232.061969859 745.771815193 271.572276134 754.17327763 311.193832382 754.17327763 c 0
 380.936591336 754.17327763 451.024045384 728.142324039 504.166992188 675 c 0
 557.886935575 621.279393943 584.747212403 552.210214279 584.747212403 483.415311625 c 0
 584.747212403 450.828530029 578.720493951 418.303288763 566.666992188 387.5 c 2
 945.833007812 8.3330078125 l 2
EndSplineSet
Validated: 1
EndChar

StartChar: u1F6E0
Encoding: 128736 128736 29
Width: 1000
HStem: 655 20G<688.958 741.25>
LayerCount: 2
Fore
SplineSet
824.12109375 -82.0029296875 m 5
 574.278320312 167.838867188 l 5
 662.666015625 256.2265625 l 5
 912.5078125 6.384765625 l 5
 824.12109375 -82.0029296875 l 5
729.166992188 383.333007812 m 4
 712.083007812 383.333007812 695.833007812 386.666992188 680.833007812 392.083007812 c 6
 206.666992188 -81.6669921875 l 5
 118.333007812 6.6669921875 l 5
 427.083007812 315.416992188 l 5
 352.916992188 389.583007812 l 5
 323.333007812 360 l 5
 264.583007812 418.75 l 5
 264.583007812 300.833007812 l 5
 235 271.25 l 5
 87.5 418.75 l 5
 117.083007812 448.333007812 l 5
 234.583007812 448.333007812 l 5
 175.833007812 507.083007812 l 5
 323.333007812 654.583007812 l 6
 347.708007812 678.958007812 379.687255859 691.145507812 411.666503906 691.145507812 c 0
 443.645751953 691.145507812 475.625 678.958007812 500 654.583007812 c 6
 411.666992188 566.25 l 5
 470.416992188 507.5 l 5
 440.833007812 477.916992188 l 5
 515 403.75 l 5
 592.083007812 480.833007812 l 6
 586.666992188 495.833007812 583.333007812 512.083007812 583.333007812 529.166992188 c 4
 583.333007812 609.583007812 648.75 675 729.166992188 675 c 4
 753.333007812 675 775.833007812 668.333007812 795.833007812 657.916992188 c 5
 683.333007812 545.416992188 l 5
 745.416992188 483.333007812 l 5
 857.916992188 595.833007812 l 5
 868.333007812 575.833007812 875 553.333007812 875 529.166992188 c 4
 875 448.75 809.583007812 383.333007812 729.166992188 383.333007812 c 4
EndSplineSet
Validated: 1
EndChar

StartChar: uni20E0
Encoding: 8416 8416 30
Width: 1000
HStem: -116.667 83.334<385.667 615.168> 633.333 83.334<384.832 614.333>
VStem: 83.333 83.334<185.667 415.168> 833.333 83.334<184.832 414.333>
LayerCount: 2
Fore
SplineSet
500 716.666992188 m 4
 730 716.666992188 916.666992188 530 916.666992188 300 c 4
 916.666992188 70 730 -116.666992188 500 -116.666992188 c 4
 270 -116.666992188 83.3330078125 70 83.3330078125 300 c 4
 83.3330078125 530 270 716.666992188 500 716.666992188 c 4
500 -33.3330078125 m 4
 577.083007812 -33.3330078125 647.916992188 -7.0830078125 704.166992188 37.0830078125 c 5
 237.083007812 504.166992188 l 5
 192.916992188 447.916992188 166.666992188 377.083007812 166.666992188 300 c 4
 166.666992188 115.833007812 315.833007812 -33.3330078125 500 -33.3330078125 c 4
762.916992188 95.8330078125 m 5
 807.083007812 152.083007812 833.333007812 222.916992188 833.333007812 300 c 4
 833.333007812 484.166992188 684.166992188 633.333007812 500 633.333007812 c 4
 422.916992188 633.333007812 352.083007812 607.083007812 295.833007812 562.916992188 c 5
 762.916992188 95.8330078125 l 5
EndSplineSet
Validated: 1
EndChar

StartChar: u1F508
Encoding: 128264 128264 31
Width: 1000
HStem: -116.25 82.917<409.705 590.295> 50 250<430.054 569.946> 383.333 83.334<447.954 552.046> 633.333 83.334<443.879 555.956>
VStem: 208.333 208.334<494.044 605.956> 208.333 83.334<84.7048 265.295> 375 250<105.054 244.946> 583.333 208.334<494.044 605.956> 708.333 83.334<84.7048 265.295>
LayerCount: 2
Fore
SplineSet
708.333007812 716.666992188 m 6xf480
 754.166992188 716.666992188 791.666992188 679.166992188 791.666992188 633.333007812 c 6
 791.666992188 -33.3330078125 l 6
 791.666992188 -79.1669921875 754.166992188 -116.666992188 708.333007812 -116.666992188 c 6
 291.666992188 -116.25 l 6
 245.833007812 -116.25 208.333007812 -79.1669921875 208.333007812 -33.3330078125 c 6
 208.333007812 633.333007812 l 6
 208.333007812 679.166992188 245.833007812 716.666992188 291.666992188 716.666992188 c 6
 708.333007812 716.666992188 l 6xf480
500 633.333007812 m 4
 453.75 633.333007812 416.666992188 595.833007812 416.666992188 550 c 4
 416.666992188 504.166992188 453.75 466.666992188 500 466.666992188 c 4
 545.833007812 466.666992188 583.333007812 504.166992188 583.333007812 550 c 4xf9
 583.333007812 595.833007812 545.833007812 633.333007812 500 633.333007812 c 4
500 -33.3330078125 m 4
 615 -33.3330078125 708.333007812 60 708.333007812 175 c 4
 708.333007812 290 615 383.333007812 500 383.333007812 c 4
 385 383.333007812 291.666992188 290 291.666992188 175 c 4xf480
 291.666992188 60 385 -33.3330078125 500 -33.3330078125 c 4
500 300 m 4
 569.166992188 300 625 244.166992188 625 175 c 4
 625 105.833007812 569.166992188 50 500 50 c 4
 430.833007812 50 375 105.833007812 375 175 c 4xf2
 375 244.166992188 430.833007812 300 500 300 c 4
EndSplineSet
Validated: 1
EndChar

StartChar: u1F507
Encoding: 128263 128263 32
Width: 1000
HStem: -33.333 21G<480 500> 175 250<125 291.667> 579.583 85.834<583.333 632.052> 655 20G<157.917 197.917>
VStem: 791.667 83.333<183.244 407.581>
LayerCount: 2
Fore
SplineSet
0 -200 m 1025xc8
687.5 300 m 4
 687.5 290.833007812 686.666992188 282.083007812 685.416992188 273.75 c 5
 583.333007812 375.833007812 l 5
 583.333007812 467.916992188 l 5
 645 437.083007812 687.5 373.75 687.5 300 c 4
791.666992188 300 m 4
 791.666992188 432.083007812 703.75 543.75 583.333007812 579.583007812 c 6
 583.333007812 665.416992188 l 5xe8
 750.416992188 627.5 875 478.333007812 875 300 c 4
 875 237.5 859.583007812 178.75 832.083007812 127.083007812 c 5
 769.166992188 190 l 6
 783.333007812 224.166992188 791.666992188 260.833007812 791.666992188 300 c 4
177.916992188 675 m 5xd8
 500 352.916992188 l 5
 875 -22.0830078125 l 5
 822.083007812 -75 l 5
 737.083007812 10.4169921875 l 6
 692.916992188 -25.4169921875 640.833007812 -52.0830078125 583.333007812 -65 c 5
 583.333007812 20.8330078125 l 6
 617.916992188 31.25 649.166992188 48.3330078125 677.083007812 70 c 5
 500 247.083007812 l 5
 500 -33.3330078125 l 5
 291.666992188 175 l 5
 125 175 l 5
 125 425 l 5
 322.083007812 425 l 5
 125 622.083007812 l 5
 177.916992188 675 l 5xd8
500 633.333007812 m 5
 500 459.166992188 l 5
 412.916992188 546.25 l 5
 500 633.333007812 l 5
EndSplineSet
Validated: 1
EndChar

StartChar: u1F3A4
Encoding: 127908 127908 33
Width: 1000
HStem: 61.667 67.5<402.531 458.333 541.667 597.469> 216.667 500<430.054 569.814>
VStem: 208.333 70.834<252.712 341.667> 375 249.583<271.721 661.613> 458.333 83.334<-75 65.1147> 720.833 70.834<252.499 341.667>
LayerCount: 2
Fore
SplineSet
500 216.666992188 m 4xf4
 430.833007812 216.666992188 375 272.5 375 341.666992188 c 6
 375 591.666992188 l 6
 375 660.833007812 430.833007812 716.666992188 500 716.666992188 c 4
 569.166992188 716.666992188 625 660.833007812 625 591.666992188 c 6
 624.583007812 341.666992188 l 6
 624.583007812 272.5 569.166992188 216.666992188 500 216.666992188 c 4xf4
720.833007812 341.666992188 m 5
 791.666992188 341.666992188 l 5
 791.666992188 199.166992188 678.333007812 81.6669921875 541.666992188 61.6669921875 c 6
 541.666992188 -75 l 5
 458.333007812 -75 l 5
 458.333007812 61.6669921875 l 6xec
 321.666992188 82.0830078125 208.333007812 199.583007812 208.333007812 341.666992188 c 5
 279.166992188 341.666992188 l 5
 279.166992188 216.666992188 385 129.166992188 500 129.166992188 c 4
 615 129.166992188 720.833007812 216.666992188 720.833007812 341.666992188 c 5
EndSplineSet
Validated: 1
EndChar

StartChar: u1F4E7
Encoding: 128231 128231 34
Width: 1000
HStem: -33.333 21G<143.75 856.25>
VStem: 83.75 82.917<466.667 550> 833.333 83.334<466.667 550>
LayerCount: 2
Fore
SplineSet
833.333007812 633.333007812 m 6
 879.166992188 633.333007812 916.666992188 595.833007812 916.666992188 550 c 6
 916.666992188 50 l 6
 916.666992188 4.1669921875 879.166992188 -33.3330078125 833.333007812 -33.3330078125 c 6
 166.666992188 -33.3330078125 l 6
 120.833007812 -33.3330078125 83.3330078125 4.1669921875 83.3330078125 50 c 6
 83.75 550 l 6
 83.75 595.833007812 120.833007812 633.333007812 166.666992188 633.333007812 c 6
 833.333007812 633.333007812 l 6
833.333007812 466.666992188 m 5
 833.333007812 550 l 5
 500 341.666992188 l 5
 166.666992188 550 l 5
 166.666992188 466.666992188 l 5
 500 258.333007812 l 5
 833.333007812 466.666992188 l 5
EndSplineSet
Validated: 1
EndChar

StartChar: uni274E
Encoding: 10062 10062 35
Width: 1000
HStem: -116.667 833.334<269.583 730.417>
VStem: 83.333 833.334<69.583 530.417>
LayerCount: 2
Fore
SplineSet
500 716.666992188 m 4
 730.416992188 716.666992188 916.666992188 530.416992188 916.666992188 300 c 4
 916.666992188 69.5830078125 730.416992188 -116.666992188 500 -116.666992188 c 4
 269.583007812 -116.666992188 83.3330078125 69.5830078125 83.3330078125 300 c 4
 83.3330078125 530.416992188 269.583007812 716.666992188 500 716.666992188 c 4
708.333007812 150.416992188 m 5
 558.75 300 l 5
 708.333007812 449.583007812 l 5
 649.583007812 508.333007812 l 5
 500 358.75 l 5
 350.416992188 508.333007812 l 5
 291.666992188 449.583007812 l 5
 441.25 300 l 5
 291.666992188 150.416992188 l 5
 350.416992188 91.6669921875 l 5
 500 241.25 l 5
 649.583007812 91.6669921875 l 5
 708.333007812 150.416992188 l 5
EndSplineSet
Validated: 1
EndChar

StartChar: uni274C
Encoding: 10060 10060 36
Width: 1000
LayerCount: 2
Fore
SplineSet
791.666992188 532.916992188 m 1
 558.75 300 l 1
 791.666992188 67.0830078125 l 1
 732.916992188 8.3330078125 l 1
 500 241.25 l 1
 267.083007812 8.3330078125 l 1
 208.333007812 67.0830078125 l 1
 441.25 300 l 1
 208.333007812 532.916992188 l 1
 267.083007812 591.666992188 l 1
 500 358.75 l 1
 732.916992188 591.666992188 l 1
 791.666992188 532.916992188 l 1
EndSplineSet
Validated: 1
EndChar

StartChar: u1F44D
Encoding: 128077 128077 37
Width: 1000
VStem: 41.667 166.666<-75 425>
LayerCount: 2
Fore
SplineSet
41.6669921875 -75 m 1
 41.6669921875 425 l 1
 208.333007812 425 l 1
 208.333007812 -75 l 1
 41.6669921875 -75 l 1
958.333007812 383.333007812 m 2
 958.333007812 300 l 2
 958.333007812 289.166992188 956.25 279.166992188 952.5 269.583007812 c 2
 826.666992188 -24.1669921875 l 2
 814.166992188 -54.1669921875 784.583007812 -75 750 -75 c 2
 375 -75 l 2
 329.166992188 -75 291.666992188 -37.5 291.666992188 8.3330078125 c 2
 291.666992188 425 l 2
 291.666992188 447.916992188 300.833007812 468.75 316.25 483.75 c 2
 590.416992188 758.333007812 l 1
 634.583007812 714.583007812 l 2
 645.833007812 703.333007812 652.916992188 687.5 652.916992188 670.416992188 c 2
 651.666992188 657.083007812 l 1
 612.083007812 466.666992188 l 1
 875 466.666992188 l 2
 920.833007812 466.666992188 958.333007812 429.166992188 958.333007812 383.333007812 c 2
EndSplineSet
Validated: 1
EndChar

StartChar: u1F44E
Encoding: 128078 128078 38
Width: 1000
HStem: 655 20G<232.708 647.917 791.667 958.333>
VStem: 791.667 166.666<175 675>
LayerCount: 2
Fore
SplineSet
625 675 m 2
 670.833007812 675 708.333007812 637.5 708.333007812 591.666992188 c 2
 708.333007812 175 l 2
 708.333007812 152.083007812 699.166992188 131.25 684.166992188 116.25 c 2
 409.583007812 -158.333007812 l 1
 365.416992188 -114.583007812 l 2
 354.166992188 -103.333007812 347.083007812 -87.5 347.083007812 -70.4169921875 c 2
 348.333007812 -57.0830078125 l 1
 387.916992188 133.333007812 l 1
 125 133.333007812 l 2
 79.1669921875 133.333007812 41.6669921875 170.833007812 41.6669921875 216.666992188 c 2
 41.6669921875 300 l 2
 41.6669921875 310.833007812 43.75 320.833007812 47.5 330.416992188 c 2
 173.333007812 624.166992188 l 2
 185.833007812 654.166992188 215.416992188 675 250 675 c 2
 625 675 l 2
791.666992188 675 m 1
 958.333007812 675 l 1
 958.333007812 175 l 1
 791.666992188 175 l 1
 791.666992188 675 l 1
EndSplineSet
Validated: 1
EndChar

StartChar: u1F6BD
Encoding: 128701 128701 39
Width: 1000
HStem: 550 166.667<256.379 368.621 631.379 743.621>
VStem: 166.667 291.666<195.833 480.956> 229.167 166.666<-116.667 195.833 577.212 689.455> 604.167 166.666<577.212 689.455> 625 125<-116.667 133.333>
LayerCount: 2
Fore
SplineSet
229.166992188 -116.666992188 m 1xa0
 229.166992188 195.833007812 l 1xa0
 166.666992188 195.833007812 l 1
 166.666992188 425 l 2
 166.666992188 470.833007812 204.166992188 508.333007812 250 508.333007812 c 2
 375 508.333007812 l 2
 420.833007812 508.333007812 458.333007812 470.833007812 458.333007812 425 c 2
 458.333007812 195.833007812 l 1xc0
 395.833007812 195.833007812 l 1
 395.833007812 -116.666992188 l 1
 229.166992188 -116.666992188 l 1xa0
750 -116.666992188 m 1x88
 625 -116.666992188 l 1
 625 133.333007812 l 1
 500 133.333007812 l 1
 605.833007812 451.25 l 2
 617.083007812 485.416992188 649.166992188 508.333007812 685 508.333007812 c 2
 690 508.333007812 l 2
 725.833007812 508.333007812 757.5 485.416992188 769.166992188 451.25 c 2
 875 133.333007812 l 1
 750 133.333007812 l 1
 750 -116.666992188 l 1x88
312.5 550 m 0
 266.25 550 229.166992188 587.083007812 229.166992188 633.333007812 c 0
 229.166992188 679.583007812 266.25 716.666992188 312.5 716.666992188 c 0
 358.75 716.666992188 395.833007812 679.583007812 395.833007812 633.333007812 c 0xa0
 395.833007812 587.083007812 358.75 550 312.5 550 c 0
687.5 550 m 0
 641.25 550 604.166992188 587.083007812 604.166992188 633.333007812 c 0
 604.166992188 679.583007812 641.25 716.666992188 687.5 716.666992188 c 0
 733.75 716.666992188 770.833007812 679.583007812 770.833007812 633.333007812 c 0x90
 770.833007812 587.083007812 733.75 550 687.5 550 c 0
EndSplineSet
Validated: 1
EndChar

StartChar: u1F512
Encoding: 128274 128274 40
Width: 1000
HStem: -116.667 208.334<444.044 555.956> 258.333 208.334<444.044 555.956> 679.167 79.166<429.405 570.595>
VStem: 166.667 250<119.044 230.956> 291.667 79.166<466.667 619.581> 583.333 250<119.044 230.956> 629.167 79.166<466.667 619.581>
LayerCount: 2
Fore
SplineSet
750 466.666992188 m 2xea
 795.833007812 466.666992188 833.333007812 429.166992188 833.333007812 383.333007812 c 2
 833.333007812 -33.3330078125 l 2
 833.333007812 -79.1669921875 795.833007812 -116.666992188 750 -116.666992188 c 2
 250 -116.666992188 l 2
 204.166992188 -116.666992188 166.666992188 -79.1669921875 166.666992188 -33.3330078125 c 2
 166.666992188 383.333007812 l 2xf4
 166.666992188 429.166992188 204.166992188 466.666992188 250 466.666992188 c 2
 291.666992188 466.666992188 l 1
 291.666992188 550 l 2
 291.666992188 665 385 758.333007812 500 758.333007812 c 0
 615 758.333007812 708.333007812 665 708.333007812 550 c 2
 708.333007812 466.666992188 l 1
 750 466.666992188 l 2xea
500 91.6669921875 m 0
 545.833007812 91.6669921875 583.333007812 129.166992188 583.333007812 175 c 0
 583.333007812 220.833007812 545.833007812 258.333007812 500 258.333007812 c 0
 454.166992188 258.333007812 416.666992188 220.833007812 416.666992188 175 c 0
 416.666992188 129.166992188 454.166992188 91.6669921875 500 91.6669921875 c 0
629.166992188 466.666992188 m 1xea
 629.166992188 550 l 2
 629.166992188 621.25 571.25 679.166992188 500 679.166992188 c 0
 428.75 679.166992188 370.833007812 621.25 370.833007812 550 c 2
 370.833007812 466.666992188 l 1
 629.166992188 466.666992188 l 1xea
EndSplineSet
Validated: 1
EndChar

StartChar: u1F513
Encoding: 128275 128275 41
Width: 1000
HStem: -116.667 83.334<250 750> 91.667 166.666<444.044 555.956> 383.333 83.334<250 629.167 708.333 750> 679.167 79.166<429.405 570.595>
VStem: 166.667 83.333<-33.333 383.333> 291.667 79.166<550 619.581> 416.667 166.666<119.044 230.956> 629.167 79.166<466.667 619.581> 750 83.333<-33.333 383.333>
LayerCount: 2
Fore
SplineSet
0 -200 m 1025
500 91.6669921875 m 0
 454.166992188 91.6669921875 416.666992188 129.166992188 416.666992188 175 c 0
 416.666992188 220.833007812 454.166992188 258.333007812 500 258.333007812 c 0
 545.833007812 258.333007812 583.333007812 220.833007812 583.333007812 175 c 0
 583.333007812 129.166992188 545.833007812 91.6669921875 500 91.6669921875 c 0
750 466.666992188 m 2
 795.833007812 466.666992188 833.333007812 429.166992188 833.333007812 383.333007812 c 2
 833.333007812 -33.3330078125 l 2
 833.333007812 -79.1669921875 795.833007812 -116.666992188 750 -116.666992188 c 2
 250 -116.666992188 l 2
 204.166992188 -116.666992188 166.666992188 -79.1669921875 166.666992188 -33.3330078125 c 2
 166.666992188 383.333007812 l 2
 166.666992188 429.166992188 204.166992188 466.666992188 250 466.666992188 c 2
 629.166992188 466.666992188 l 1
 629.166992188 550 l 2
 629.166992188 621.25 571.25 679.166992188 500 679.166992188 c 0
 428.75 679.166992188 370.833007812 621.25 370.833007812 550 c 1
 291.666992188 550 l 1
 291.666992188 665 385 758.333007812 500 758.333007812 c 0
 615 758.333007812 708.333007812 665 708.333007812 550 c 2
 708.333007812 466.666992188 l 1
 750 466.666992188 l 2
750 -33.3330078125 m 1
 750 383.333007812 l 1
 250 383.333007812 l 1
 250 -33.3330078125 l 1
 750 -33.3330078125 l 1
EndSplineSet
Validated: 1
EndChar

StartChar: dollar
Encoding: 36 36 42
Width: 1000
HStem: -75 162.5<418.594 540.996> 512.5 162.5<417.152 539.988>
VStem: 263.333 91.667<124.297 175> 270.833 95.834<389.094 483.743> 416.667 125<-75 18.7794 580.261 675> 583.333 92.084<425 483.223> 591.667 95.833<114.574 214.167>
LayerCount: 2
Fore
SplineSet
491.666992188 345.833007812 m 0xdc
 586.25 321.25 687.5 280.833007812 687.5 162.5 c 0
 687.5 77.0830078125 622.916992188 30 541.666992188 14.5830078125 c 2
 541.666992188 -75 l 1
 416.666992188 -75 l 1
 416.666992188 15.4169921875 l 2
 336.666992188 32.5 268.333007812 83.75 263.333007812 175 c 1
 355 175 l 2
 359.583007812 125.833007812 393.333007812 87.5 479.166992188 87.5 c 0
 571.25 87.5 591.666992188 133.333007812 591.666992188 162.083007812 c 0xea
 591.666992188 200.833007812 570.833007812 237.5 466.666992188 262.5 c 0
 350.416992188 290.416992188 270.833007812 338.333007812 270.833007812 434.583007812 c 0
 270.833007812 515 335.833007812 567.5 416.666992188 585 c 2
 416.666992188 675 l 1
 541.666992188 675 l 1
 541.666992188 583.75 l 2
 628.75 562.5 672.5 496.666992188 675.416992188 425 c 1
 583.333007812 425 l 2
 580.833007812 477.083007812 553.333007812 512.5 479.166992188 512.5 c 0
 408.75 512.5 366.666992188 480.833007812 366.666992188 435.416992188 c 0
 366.666992188 395.833007812 397.083007812 370.416992188 491.666992188 345.833007812 c 0xdc
EndSplineSet
Validated: 1
EndChar

StartChar: uni2601
Encoding: 9729 9729 43
Width: 1000
HStem: -33.333 666.666<387.874 614.121>
LayerCount: 2
Fore
SplineSet
806.25 381.666992188 m 0
 914.583007812 374.166992188 1000 285 1000 175 c 0
 1000 60 906.666992188 -33.3330078125 791.666992188 -33.3330078125 c 2
 250 -33.3330078125 l 2
 112.083007812 -33.3330078125 0 78.75 0 216.666992188 c 0
 0 345.416992188 97.5 451.666992188 222.916992188 465 c 0
 275 565 379.583007812 633.333007812 500 633.333007812 c 0
 651.666992188 633.333007812 777.916992188 525.416992188 806.25 381.666992188 c 0
EndSplineSet
Validated: 1
EndChar

StartChar: u1F5C0
Encoding: 128448 128448 44
Width: 1000
HStem: -33.333 21G<143.75 856.25>
LayerCount: 2
Fore
SplineSet
416.666992188 633.333007812 m 1
 500 550 l 1
 833.333007812 550 l 2
 879.166992188 550 916.666992188 512.5 916.666992188 466.666992188 c 2
 916.666992188 50 l 2
 916.666992188 4.1669921875 879.166992188 -33.3330078125 833.333007812 -33.3330078125 c 2
 166.666992188 -33.3330078125 l 2
 120.833007812 -33.3330078125 83.3330078125 4.1669921875 83.3330078125 50 c 2
 83.75 550 l 2
 83.75 595.833007812 120.833007812 633.333007812 166.666992188 633.333007812 c 2
 416.666992188 633.333007812 l 1
EndSplineSet
Validated: 1
EndChar

StartChar: u1F5C1
Encoding: 128449 128449 45
Width: 1000
HStem: -33.333 83.333<166.667 833.333> 466.667 166.666<166.667 416.667> 466.667 83.333<500 833.333>
VStem: 83.333 83.334<50 466.667> 833.333 83.334<50 466.667>
LayerCount: 2
Fore
SplineSet
833.333007812 550 m 2xb8
 879.166992188 550 916.666992188 512.5 916.666992188 466.666992188 c 2
 916.666992188 50 l 2
 916.666992188 4.1669921875 879.166992188 -33.3330078125 833.333007812 -33.3330078125 c 2
 166.666992188 -33.3330078125 l 2
 120.833007812 -33.3330078125 83.3330078125 4.1669921875 83.3330078125 50 c 2
 83.75 550 l 2xb8
 83.75 595.833007812 120.833007812 633.333007812 166.666992188 633.333007812 c 2
 416.666992188 633.333007812 l 1xd8
 500 550 l 1
 833.333007812 550 l 2xb8
833.333007812 50 m 1
 833.333007812 466.666992188 l 1xb8
 166.666992188 466.666992188 l 1xd8
 166.666992188 50 l 1
 833.333007812 50 l 1
EndSplineSet
Validated: 1
EndChar

StartChar: u1F3D6
Encoding: 127958 127958 46
Width: 1000
HStem: -45 21G<207.526 268.75> 432.083 21G<678.957 745.833> 574.801 100.148<366.434 600.477>
VStem: 125.052 100.148<199.523 433.566>
LayerCount: 2
Fore
SplineSet
547 193 m 5
 607 253 l 5
 874.875 -15.5419921875 l 5
 815.416992188 -75 l 5
 547 193 l 5
725.833007812 432.083007812 m 5
 632.081753355 525.834964285 511.415366562 574.800532159 390.147440287 574.800532159 c 0
 342.721306312 574.800532159 295.203168131 567.311350913 249.166992188 552.083007812 c 5
 331.302048557 634.010451821 438.86115537 674.948199486 546.468596822 674.948199486 c 0
 654.485970888 674.948199486 762.552048557 633.697951443 845 551.25 c 5
 725.833007812 432.083007812 l 5
247.916992188 550.833007812 m 5
 232.688649087 504.796831869 225.199467841 457.278693688 225.199467841 409.852559713 c 0
 225.199467841 288.584633438 274.165035715 167.918246645 367.916992188 74.1669921875 c 5
 248.75 -45 l 5
 166.302048557 37.4479514432 125.051800514 145.514029112 125.051800514 253.531403178 c 0
 125.051800514 361.13884463 165.989548179 468.697951443 247.916992188 550.833007812 c 5
248.75 551.666992188 m 6
 261.208809386 553.239828714 274.025333344 554.01909957 287.133403313 554.01909957 c 0
 405.97812738 554.01909957 548.788512629 489.961487371 666.25 372.5 c 5
 427.5 133.75 l 5
 310.038512629 251.586176384 245.98090043 394.096315149 245.98090043 512.877689266 c 0
 245.98090043 525.978772004 246.760171286 538.791190614 248.333007812 551.25 c 6
 248.75 551.666992188 l 6
EndSplineSet
Validated: 1
EndChar

StartChar: uni2602
Encoding: 9730 9730 47
Width: 1000
HStem: 678.333 80<542.868 582.132>
VStem: 458.333 83.334<183.333 454.583 559.583 676.084> 583.333 83.334<633.333 676.084>
LayerCount: 2
Fore
SplineSet
604.166992188 511.666992188 m 1
 750 547.083007812 l 1
 539.583007812 -87.9169921875 l 2
 533.333007812 -107.083007812 516.666992188 -116.666992188 500 -116.666992188 c 0
 483.333007812 -116.666992188 466.666992188 -107.083007812 460.416992188 -88.3330078125 c 2
 250 547.083007812 l 1
 395.833007812 511.666992188 l 1
 458.333007812 559.583007812 l 1
 458.333007812 638.333007812 l 1
 458.333007812 658.333007812 l 2
 458.333007812 713.75 505 758.333007812 562.5 758.333007812 c 0
 620 758.333007812 666.666992188 713.75 666.666992188 658.333007812 c 2
 666.666992188 633.333007812 l 1
 583.333007812 633.333007812 l 1
 583.333007812 658.333007812 l 2
 583.333007812 669.583007812 574.166992188 678.333007812 562.5 678.333007812 c 0
 550.833007812 678.333007812 541.666992188 669.166992188 541.666992188 658.333007812 c 2
 541.666992188 638.333007812 l 1
 541.666992188 559.583007812 l 1
 604.166992188 511.666992188 l 1
553.333007812 445.833007812 m 1
 541.666992188 454.583007812 l 1
 541.666992188 183.333007812 l 1
 623.333007812 431.25 l 1
 585 421.666992188 l 1
 553.333007812 445.833007812 l 1
415 421.25 m 1
 376.25 430.833007812 l 1
 458.333007812 183.333007812 l 1
 458.333007812 454.583007812 l 1
 446.666992188 445.416992188 l 1
 415 421.25 l 1
EndSplineSet
Validated: 1
EndChar

StartChar: u1F4FB
Encoding: 128251 128251 48
Width: 1000
HStem: -116.667 83.334<221.721 361.613> 216.667 83.333<221.721 361.613> 466.667 83.333<345.833 833.333>
VStem: 83.333 83.334<21.7206 161.613 300 466.667> 416.667 500<21.7206 161.613> 666.667 83.333<300 383.333> 833.333 83.334<300 466.667>
LayerCount: 2
Fore
SplineSet
135 543.75 m 2xf2
 661.666992188 758.333007812 l 1
 690 689.166992188 l 1
 345.833007812 550 l 1
 833.333007812 550 l 2
 879.583007812 550 916.666992188 512.916992188 916.666992188 466.666992188 c 2
 916.666992188 -33.3330078125 l 2
 916.666992188 -79.1669921875 879.583007812 -116.666992188 833.333007812 -116.666992188 c 2
 166.666992188 -116.666992188 l 2
 120.416992188 -116.666992188 83.3330078125 -79.1669921875 83.3330078125 -33.3330078125 c 2
 83.3330078125 466.666992188 l 2
 83.3330078125 501.25 104.583007812 532.083007812 135 543.75 c 2xf2
291.666992188 -33.3330078125 m 0
 360.833007812 -33.3330078125 416.666992188 22.5 416.666992188 91.6669921875 c 0xf8
 416.666992188 160.833007812 360.833007812 216.666992188 291.666992188 216.666992188 c 0
 222.5 216.666992188 166.666992188 160.833007812 166.666992188 91.6669921875 c 0
 166.666992188 22.5 222.5 -33.3330078125 291.666992188 -33.3330078125 c 0
833.333007812 300 m 1xf6
 833.333007812 466.666992188 l 1
 166.666992188 466.666992188 l 1
 166.666992188 300 l 1
 666.666992188 300 l 1
 666.666992188 383.333007812 l 1
 750 383.333007812 l 1
 750 300 l 1
 833.333007812 300 l 1xf6
EndSplineSet
Validated: 1
EndChar

StartChar: u1F518
Encoding: 128280 128280 49
Width: 1000
HStem: -116.667 83.334<385.667 614.333> 91.667 416.666<409.705 590.295> 633.333 83.334<385.667 614.333>
VStem: 83.333 83.334<185.667 414.333> 291.667 416.666<209.705 390.295> 833.333 83.334<185.667 414.333>
CounterMasks: 1 fc
LayerCount: 2
Fore
SplineSet
500 508.333007812 m 0
 615 508.333007812 708.333007812 415 708.333007812 300 c 0
 708.333007812 185 615 91.6669921875 500 91.6669921875 c 0
 385 91.6669921875 291.666992188 185 291.666992188 300 c 0
 291.666992188 415 385 508.333007812 500 508.333007812 c 0
500 716.666992188 m 0
 730 716.666992188 916.666992188 530 916.666992188 300 c 0
 916.666992188 70 730 -116.666992188 500 -116.666992188 c 0
 270 -116.666992188 83.3330078125 70 83.3330078125 300 c 0
 83.3330078125 530 270 716.666992188 500 716.666992188 c 0
500 -33.3330078125 m 0
 684.166992188 -33.3330078125 833.333007812 115.833007812 833.333007812 300 c 0
 833.333007812 484.166992188 684.166992188 633.333007812 500 633.333007812 c 0
 315.833007812 633.333007812 166.666992188 484.166992188 166.666992188 300 c 0
 166.666992188 115.833007812 315.833007812 -33.3330078125 500 -33.3330078125 c 0
EndSplineSet
Validated: 1
EndChar

StartChar: u1F3F7
Encoding: 127991 127991 50
Width: 1000
HStem: 8.75 582.5<152.377 723.378>
LayerCount: 2
Fore
SplineSet
734.583007812 556.666992188 m 2
 916.666992188 300 l 1
 734.583007812 43.3330078125 l 2
 719.583007812 22.0830078125 694.583007812 8.3330078125 666.666992188 8.3330078125 c 2
 208.333007812 8.75 l 2
 162.5 8.75 125 45.8330078125 125 91.6669921875 c 2
 125 508.333007812 l 2
 125 554.166992188 162.5 591.25 208.333007812 591.25 c 2
 666.666992188 591.666992188 l 2
 694.583007812 591.666992188 719.583007812 577.916992188 734.583007812 556.666992188 c 2
EndSplineSet
Validated: 1
EndChar

StartChar: u1F50D
Encoding: 128269 128269 51
Width: 1000
HStem: 133.333 83.334<309.677 482.077> 591.667 83.333<309.677 481.99>
VStem: 125 83.333<318.01 490.323> 583.333 83.334<317.923 490.323>
LayerCount: 2
Fore
SplineSet
645.833007812 216.666992188 m 1
 853.75 8.3330078125 l 1
 791.666992188 -53.75 l 1
 583.333007812 154.166992188 l 1
 583.333007812 187.083007812 l 1
 572.083007812 198.75 l 2
 524.583007812 157.916992188 462.916992188 133.333007812 395.833007812 133.333007812 c 0
 246.25 133.333007812 125 254.583007812 125 404.166992188 c 0
 125 553.75 246.25 675 395.833007812 675 c 0
 545.416992188 675 666.666992188 553.75 666.666992188 404.166992188 c 0
 666.666992188 337.083007812 642.083007812 275.416992188 601.25 227.916992188 c 2
 612.916992188 216.666992188 l 1
 645.833007812 216.666992188 l 1
395.833007812 216.666992188 m 0
 499.583007812 216.666992188 583.333007812 300.416992188 583.333007812 404.166992188 c 0
 583.333007812 507.916992188 499.583007812 591.666992188 395.833007812 591.666992188 c 0
 292.083007812 591.666992188 208.333007812 507.916992188 208.333007812 404.166992188 c 0
 208.333007812 300.416992188 292.083007812 216.666992188 395.833007812 216.666992188 c 0
EndSplineSet
Validated: 524289
EndChar

StartChar: uni24D5
Encoding: 9429 9429 52
Width: 1000
HStem: 300 125<546.715 666.667> 550 166.667<489.251 633.591>
VStem: 666.667 250<183.224 300 425 530>
LayerCount: 2
Fore
SplineSet
916.666992188 300 m 0
 916.666992188 83.75 752.083007812 -93.75 541.666992188 -114.583007812 c 1
 541.666992188 175 l 1
 666.666992188 175 l 1
 666.666992188 300 l 1
 541.666992188 300 l 1
 541.666992188 383.333007812 l 2
 541.666992188 406.25 560.416992188 425 583.333007812 425 c 2
 666.666992188 425 l 1
 666.666992188 550 l 1
 562.5 550 l 2
 482.083007812 550 416.666992188 484.583007812 416.666992188 404.166992188 c 2
 416.666992188 300 l 1
 333.333007812 300 l 1
 333.333007812 175 l 1
 416.666992188 175 l 1
 416.666992188 -108.333007812 l 1
 226.666992188 -69.5830078125 83.3330078125 98.3330078125 83.3330078125 300 c 0
 83.3330078125 530 270 716.666992188 500 716.666992188 c 0
 730 716.666992188 916.666992188 530 916.666992188 300 c 0
EndSplineSet
Validated: 524289
EndChar

StartChar: copyright
Encoding: 169 169 53
Width: 1000
HStem: -116.667 83.334<385.751 614.249> 117.5 62.917<442.554 545.218> 419.167 63.75<444.082 543.541> 633.333 83.334<385.751 614.249>
VStem: 83.333 83.334<185.751 414.249> 333.333 83.334<208.273 391.295> 562.083 74.584<198.36 240.417 350 399.343> 833.333 83.334<185.751 414.249>
LayerCount: 2
Fore
SplineSet
495 419.166992188 m 0
 470 418.333007812 416.666992188 414.583007812 416.666992188 294.166992188 c 0
 416.666992188 224.583007812 439.583007812 182.083007812 494.166992188 180.416992188 c 0
 543.333007812 182.916992188 560.833007812 215.833007812 562.083007812 240.416992188 c 2
 636.666992188 240.416992188 l 1
 635.416992188 186.25 585.833007812 117.5 493.333007812 117.5 c 0
 372.083007812 117.5 333.333007812 213.333007812 333.333007812 294.166992188 c 0
 333.333007812 425 401.666992188 482.916992188 493.75 482.916992188 c 0
 575.416992188 482.916992188 634.166992188 432.5 637.5 350 c 1
 562.916992188 350 l 2
 562.083007812 371.25 548.333007812 416.666992188 495 419.166992188 c 0
500 716.666992188 m 0
 730 716.666992188 916.666992188 530 916.666992188 300 c 0
 916.666992188 70 730 -116.666992188 500 -116.666992188 c 0
 270 -116.666992188 83.3330078125 70 83.3330078125 300 c 0
 83.3330078125 530 270 716.666992188 500 716.666992188 c 0
500 -33.3330078125 m 0
 683.75 -33.3330078125 833.333007812 116.25 833.333007812 300 c 0
 833.333007812 483.75 683.75 633.333007812 500 633.333007812 c 0
 316.25 633.333007812 166.666992188 483.75 166.666992188 300 c 0
 166.666992188 116.25 316.25 -33.3330078125 500 -33.3330078125 c 0
EndSplineSet
Validated: 524289
EndChar

StartChar: u1F6EB
Encoding: 128747 128747 54
Width: 1000
HStem: -75 83.333<104.167 895.833>
LayerCount: 2
Fore
SplineSet
104.166992188 8.3330078125 m 1
 895.833007812 8.3330078125 l 1
 895.833007812 -75 l 1
 104.166992188 -75 l 1
 104.166992188 8.3330078125 l 1
919.583007812 398.333007812 m 0
 920.990745011 392.970251807 921.665117937 387.585909165 921.665117937 382.28582759 c 0
 921.665117937 354.642463602 903.320156519 329.291252775 875 321.25 c 0
 481.25 215.833007812 184.583007812 136.666992188 184.583007812 136.666992188 c 1
 76.6669921875 323.75 l 1
 137.083007812 340 l 1
 219.166992188 275.833007812 l 1
 426.25 331.25 l 1
 253.75 630 l 1
 334.166992188 651.25 l 1
 621.666992188 383.333007812 l 1
 842.916992188 442.5 l 2
 848.39995631 444.007883404 853.916741851 444.726591578 859.346812027 444.726591578 c 0
 886.928187404 444.726591578 912.27229995 426.183867429 919.583007812 398.333007812 c 0
EndSplineSet
Validated: 524289
EndChar

StartChar: u1F6EC
Encoding: 128748 128748 55
Width: 1000
HStem: -75 83.333<104.167 895.833> 137.499 122.918<812.157 868.952>
LayerCount: 2
Fore
SplineSet
104.166992188 8.3330078125 m 1
 895.833007812 8.3330078125 l 1
 895.833007812 -75 l 1
 104.166992188 -75 l 1
 104.166992188 8.3330078125 l 1
805.833007812 139.583007812 m 2
 115.416992188 324.583007812 l 1
 115.416992188 540 l 1
 175.833007812 523.75 l 1
 214.583007812 427.083007812 l 1
 421.666992188 371.666992188 l 1
 421.666992188 716.666992188 l 1
 502.083007812 695.416992188 l 1
 617.083007812 319.583007812 l 1
 838.333007812 260.416992188 l 2
 866.297172485 252.726724015 884.583845879 227.442266741 884.583845879 199.81591769 c 0
 884.583845879 194.510967045 883.909550142 189.119662386 882.5 183.75 c 0
 874.80968974 155.786501532 849.525685073 137.499225711 821.898804047 137.499225711 c 0
 816.593931482 137.499225711 811.202674468 138.173497845 805.833007812 139.583007812 c 2
EndSplineSet
Validated: 524289
EndChar

StartChar: u1F4DE
Encoding: 128222 128222 56
Width: 1000
HStem: -75 228.75<691.17 869.952> 655 20G<155.208 323.958>
VStem: 125 229.167<491.167 669.952>
LayerCount: 2
Fore
SplineSet
275.833007812 350.416992188 m 2
 335.833007812 232.5 432.5 136.25 550.416992188 75.8330078125 c 2
 642.083007812 167.5 l 2
 650.050302053 175.467294241 660.734503947 179.672942406 671.471254075 179.672942406 c 0
 675.895038413 179.672942406 680.32774348 178.958980338 684.583007812 177.5 c 0
 731.25 162.083007812 781.666992188 153.75 833.333007812 153.75 c 0
 856.25 153.75 875 135 875 112.083007812 c 2
 875 -33.3330078125 l 2
 875 -56.25 856.25 -75 833.333007812 -75 c 0
 442.083007812 -75 125 242.083007812 125 633.333007812 c 0
 125 656.25 143.75 675 166.666992188 675 c 2
 312.5 675 l 2
 335.416992188 675 354.166992188 656.25 354.166992188 633.333007812 c 0
 354.166992188 581.25 362.5 531.25 377.916992188 484.583007812 c 0
 379.23368051 480.393340922 379.896980439 476.066080398 379.896980439 471.749436129 c 0
 379.896980439 461.041101386 375.815090336 450.398098149 367.5 442.083007812 c 2
 275.833007812 350.416992188 l 2
EndSplineSet
Validated: 524289
EndChar

StartChar: u1F4F5
Encoding: 128245 128245 57
Width: 1000
HStem: -158.333 208.333<291.667 632.083> 550 208.333<367.917 708.333> 662.917 20G<96.667 136.667>
VStem: 208.333 83.334<50 390.417> 708.333 83.334<209.583 550>
LayerCount: 2
Fore
SplineSet
0 -200 m 1025x98
367.916992188 550 m 1xd8
 213.75 704.166992188 l 2
 225.833007812 735.416992188 256.25 758.333007812 291.666992188 758.333007812 c 2
 708.333007812 757.916992188 l 2
 754.166992188 757.916992188 791.666992188 720.833007812 791.666992188 675 c 2
 791.666992188 126.25 l 1
 708.333007812 209.583007812 l 1
 708.333007812 550 l 1
 367.916992188 550 l 1xd8
824.166992188 -142.083007812 m 1
 786.25 -104.166992188 l 1
 774.166992188 -135.416992188 743.75 -158.333007812 708.333007812 -158.333007812 c 2
 291.666992188 -158.333007812 l 2
 245.833007812 -158.333007812 208.333007812 -120.833007812 208.333007812 -75 c 2
 208.333007812 473.75 l 1
 57.9169921875 624.166992188 l 1
 116.666992188 682.916992188 l 1xb8
 882.5 -82.9169921875 l 1
 824.166992188 -142.083007812 l 1
632.083007812 50 m 1
 291.666992188 390.416992188 l 1
 291.666992188 50 l 1
 632.083007812 50 l 1
EndSplineSet
Validated: 524289
EndChar

StartChar: u1F4F1
Encoding: 128241 128241 58
Width: 1000
HStem: -158.333 166.666<291.667 708.333> 591.667 166.666<291.667 708.333>
VStem: 208.333 83.334<8.33301 591.667> 708.333 83.334<8.33301 591.667>
LayerCount: 2
Fore
SplineSet
708.333007812 757.916992188 m 2
 754.166992188 757.916992188 791.666992188 720.833007812 791.666992188 675 c 2
 791.666992188 -75 l 2
 791.666992188 -120.833007812 754.166992188 -158.333007812 708.333007812 -158.333007812 c 2
 291.666992188 -158.333007812 l 2
 245.833007812 -158.333007812 208.333007812 -120.833007812 208.333007812 -75 c 2
 208.333007812 675 l 2
 208.333007812 720.833007812 245.833007812 758.333007812 291.666992188 758.333007812 c 2
 708.333007812 757.916992188 l 2
708.333007812 8.3330078125 m 1
 708.333007812 591.666992188 l 1
 291.666992188 591.666992188 l 1
 291.666992188 8.3330078125 l 1
 708.333007812 8.3330078125 l 1
EndSplineSet
Validated: 524289
EndChar

StartChar: uni2691
Encoding: 9873 9873 59
Width: 1000
VStem: 208.333 83.334<-75 216.667>
LayerCount: 2
Fore
SplineSet
600 550 m 1
 833.333007812 550 l 1
 833.333007812 133.333007812 l 1
 541.666992188 133.333007812 l 1
 525 216.666992188 l 1
 291.666992188 216.666992188 l 1
 291.666992188 -75 l 1
 208.333007812 -75 l 1
 208.333007812 633.333007812 l 1
 583.333007812 633.333007812 l 1
 600 550 l 1
EndSplineSet
Validated: 524289
EndChar

StartChar: uni2690
Encoding: 9872 9872 60
Width: 1000
HStem: 133.333 83.334<583.333 750> 216.667 83.333<291.667 500> 466.667 83.333<583.333 750> 550 83.333<291.667 500>
VStem: 208.333 83.334<-75 216.667 300 550> 750 83.333<216.667 466.667>
LayerCount: 2
Fore
SplineSet
583.333007812 550 m 1x2c
 833.333007812 550 l 1
 833.333007812 133.333007812 l 1
 541.666992188 133.333007812 l 1x9c
 500 216.666992188 l 1
 291.666992188 216.666992188 l 1
 291.666992188 -75 l 1
 208.333007812 -75 l 1
 208.333007812 633.333007812 l 1
 541.666992188 633.333007812 l 1x5c
 583.333007812 550 l 1x2c
750 216.666992188 m 1
 750 466.666992188 l 1
 541.666992188 466.666992188 l 1xac
 500 550 l 1
 291.666992188 550 l 1
 291.666992188 300 l 1
 541.666992188 300 l 1x5c
 583.333007812 216.666992188 l 1
 750 216.666992188 l 1
EndSplineSet
Validated: 524289
EndChar

StartChar: uni26F3
Encoding: 9971 9971 61
Width: 1000
HStem: -116.667 83.334<292.296 375> -75 125<765.241 859.759>
VStem: 375 83.333<47.1827 425.833> 750 125<-59.7591 34.7591>
LayerCount: 2
Fore
SplineSet
750 -12.5 m 0x70
 750 22.017578125 777.982421875 50 812.5 50 c 0
 847.017578125 50 875 22.017578125 875 -12.5 c 0
 875 -47.017578125 847.017578125 -75 812.5 -75 c 0
 777.982421875 -75 750 -47.017578125 750 -12.5 c 0x70
708.333007812 553.333007812 m 1
 458.333007812 425.833007812 l 1
 458.333007812 48.75 l 2
 576.666992188 42.0830078125 666.666992188 7.9169921875 666.666992188 -33.3330078125 c 0
 666.666992188 -79.1669921875 554.583007812 -116.666992188 416.666992188 -116.666992188 c 0
 278.75 -116.666992188 166.666992188 -79.1669921875 166.666992188 -33.3330078125 c 0
 166.666992188 -2.5 217.083007812 24.1669921875 291.666992188 38.75 c 1
 291.666992188 -33.3330078125 l 1
 375 -33.3330078125 l 1xb0
 375 716.666992188 l 1
 708.333007812 553.333007812 l 1
EndSplineSet
Validated: 524289
EndChar

StartChar: uni02C2
Encoding: 706 706 62
Width: 1000
VStem: 333.333 308.75
LayerCount: 2
Fore
SplineSet
642.083007812 108.75 m 1
 583.333007812 50 l 1
 333.333007812 300 l 1
 583.333007812 550 l 1
 642.083007812 491.25 l 1
 451.25 300 l 1
 642.083007812 108.75 l 1
EndSplineSet
Validated: 524289
EndChar

StartChar: uni02C3
Encoding: 707 707 63
Width: 1000
VStem: 357.917 308.75
LayerCount: 2
Fore
SplineSet
357.916992188 108.75 m 1
 548.75 300 l 1
 357.916992188 491.25 l 1
 416.666992188 550 l 1
 666.666992188 300 l 1
 416.666992188 50 l 1
 357.916992188 108.75 l 1
EndSplineSet
Validated: 524289
EndChar

StartChar: uni02C4
Encoding: 708 708 64
Width: 1000
HStem: 157.917 308.75
LayerCount: 2
Fore
SplineSet
308.75 157.916992188 m 1
 250 216.666992188 l 1
 500 466.666992188 l 1
 750 216.666992188 l 1
 691.25 157.916992188 l 1
 500 348.75 l 1
 308.75 157.916992188 l 1
EndSplineSet
Validated: 524289
EndChar

StartChar: uni02C5
Encoding: 709 709 65
Width: 1000
HStem: 133.333 308.75
LayerCount: 2
Fore
SplineSet
308.75 442.083007812 m 1
 500 251.25 l 1
 691.25 442.083007812 l 1
 750 383.333007812 l 1
 500 133.333007812 l 1
 250 383.333007812 l 1
 308.75 442.083007812 l 1
EndSplineSet
Validated: 524289
EndChar

StartChar: uni33CC
Encoding: 13260 13260 66
Width: 1000
HStem: -75 82.6562<233.552 357.082 412.727 536.257 669.798 796.289> 399.449 33.2109<247.546 343.088> 592.344 82.6562<241.633 349>
VStem: 125 108.552<7.65625 399.449> 125 90.4756<458.818 566.185> 357.082 55.6445<7.65625 399.449> 375.158 499.842<458.818 566.185> 536.257 133.541<7.65625 276.768> 796.289 78.7109<7.65625 337.91>
LayerCount: 2
Fore
SplineSet
807.15625 675 m 2xe880
 844.625 675 875 644.625 875 607.15625 c 2
 875 -7.154296875 l 2
 875 -44.625 844.625 -75 807.154296875 -75 c 2
 192.84375 -75 l 2
 155.375 -75 125 -44.625 125 -7.154296875 c 2
 125 607.15625 l 2
 125 644.625 155.375 675 192.84375 675 c 2
 807.15625 675 l 2xe880
357.08203125 27.400390625 m 2xf4
 357.08203125 379.706054688 l 2
 357.08203125 390.611328125 348.243164062 399.44921875 337.338867188 399.44921875 c 2
 253.294921875 399.44921875 l 2
 242.390625 399.44921875 233.551757812 390.611328125 233.551757812 379.706054688 c 2
 233.551757812 27.400390625 l 2
 233.551757812 16.49609375 242.390625 7.65625 253.294921875 7.65625 c 2
 337.338867188 7.65625 l 2
 348.243164062 7.65625 357.08203125 16.49609375 357.08203125 27.400390625 c 2xf4
295.31640625 432.66015625 m 0
 339.4140625 432.66015625 375.158203125 468.40625 375.158203125 512.500976562 c 0
 375.158203125 556.595703125 339.411132812 592.34375 295.31640625 592.34375 c 0
 251.221679688 592.34375 215.475585938 556.595703125 215.475585938 512.500976562 c 0xea
 215.475585938 468.40625 251.221679688 432.66015625 295.31640625 432.66015625 c 0
796.2890625 25.810546875 m 1xe580
 796.2890625 196.319335938 l 2
 796.2890625 197.157226562 796.290039062 198.00390625 796.290039062 198.858398438 c 0
 796.290039062 273.482421875 795.482421875 405.361328125 652.708007812 405.361328125 c 0
 587.495117188 405.361328125 556.8671875 381.48828125 536.256835938 350.560546875 c 1
 536.256835938 381.296875 l 2
 536.256835938 391.321289062 528.12890625 399.44921875 518.103515625 399.44921875 c 2
 430.879882812 399.44921875 l 2
 420.85546875 399.44921875 412.7265625 391.321289062 412.7265625 381.296875 c 2
 412.7265625 25.810546875 l 2
 412.7265625 15.78515625 420.85546875 7.65625 430.879882812 7.65625 c 2
 518.103515625 7.65625 l 2
 528.130859375 7.65625 536.256835938 15.78515625 536.256835938 25.810546875 c 2
 536.256835938 216.41015625 l 2
 538.521484375 242.01953125 549.794921875 299.087890625 605.375 299.087890625 c 0
 664.99609375 299.087890625 670.001953125 241.365234375 670.001953125 207.77734375 c 0
 670.001953125 200.998046875 669.797851562 195.202148438 669.797851562 191.061523438 c 2
 669.797851562 25.810546875 l 2
 669.797851562 15.78515625 677.926757812 7.65625 687.952148438 7.65625 c 2
 778.13671875 7.65625 l 2
 788.161132812 7.65625 796.2890625 15.78515625 796.2890625 25.810546875 c 1xe580
EndSplineSet
Validated: 524289
EndChar

StartChar: uni33BC
Encoding: 13244 13244 67
Width: 1000
HStem: 300 125<546.715 666.667> 550 166.667<489.251 633.591>
VStem: 666.667 250<183.224 300 425 530>
LayerCount: 2
Fore
SplineSet
916.666992188 300 m 0
 916.666992188 83.75 752.083007812 -93.75 541.666992188 -114.583007812 c 1
 541.666992188 175 l 1
 666.666992188 175 l 1
 666.666992188 300 l 1
 541.666992188 300 l 1
 541.666992188 383.333007812 l 2
 541.666992188 406.25 560.416992188 425 583.333007812 425 c 2
 666.666992188 425 l 1
 666.666992188 550 l 1
 562.5 550 l 2
 482.083007812 550 416.666992188 484.583007812 416.666992188 404.166992188 c 2
 416.666992188 300 l 1
 333.333007812 300 l 1
 333.333007812 175 l 1
 416.666992188 175 l 1
 416.666992188 -108.333007812 l 1
 226.666992188 -69.5830078125 83.3330078125 98.3330078125 83.3330078125 300 c 0
 83.3330078125 530 270 716.666992188 500 716.666992188 c 0
 730 716.666992188 916.666992188 530 916.666992188 300 c 0
EndSplineSet
Validated: 524289
EndChar
